<?xml version="1.0" encoding="utf-8"?>
<!-- Generator: Adobe Illustrator 25.4.1, SVG Export Plug-In . SVG Version: 6.00 Build 0)  -->
<svg version="1.1" xmlns="http://www.w3.org/2000/svg" xmlns:xlink="http://www.w3.org/1999/xlink" x="0px" y="0px"
	 viewBox="0 0 3710 3710" style="enable-background:new 0 0 3710 3710;" xml:space="preserve">
<style type="text/css">
	.st0{fill:#26264F;}
	.st1{fill:url(#SVGID_1_);}
	.st2{fill:url(#SVGID_00000181053578624177181040000009793498956201221793_);}
	.st3{fill:#FFFFFF;}
	.st4{opacity:0.48;fill:#FFFFFF;}
	.st5{fill:url(#SVGID_00000127734655432540287720000004527218576822470573_);}
	.st6{opacity:0.67;}
	.st7{fill:url(#SVGID_00000120520736059022832820000008428719275025430959_);}
	.st8{fill:#EBEFF2;}
	.st9{fill:#D8DEE8;}
	.st10{fill:url(#SVGID_00000040551919771256516600000017358027420898389680_);}
	.st11{fill:url(#SVGID_00000119112724954791268370000018169662514468004489_);}
	.st12{fill:url(#SVGID_00000037693152862299496390000008702372602987636127_);}
	.st13{fill:url(#SVGID_00000042725706539181582260000006262955374888226694_);}
	.st14{fill:url(#SVGID_00000104675877650365956640000011135511481533968290_);}
	.st15{fill:url(#SVGID_00000061463597338836567480000014236623199310184850_);}
	.st16{opacity:0.3;fill:#FFFFFF;}
	.st17{fill:url(#SVGID_00000129166523867198426200000010150021777056403604_);}
	.st18{fill:url(#SVGID_00000029765488644869645050000005517277144806496439_);}
	.st19{opacity:0.4;fill:url(#SVGID_00000176018526694130466110000005978577404834122673_);}
	.st20{fill:url(#SVGID_00000134225413166051799430000006224923093452615352_);}
	.st21{fill:url(#SVGID_00000057122541860031389360000012012915034632360595_);}
	.st22{fill:url(#SVGID_00000125574667698956022990000011725104799007215772_);}
	.st23{fill:url(#SVGID_00000103973758666400008890000004619630678250928277_);}
	.st24{fill:url(#SVGID_00000181790486851344834380000003678745383404748686_);}
	.st25{fill:url(#SVGID_00000032609069998327061240000007402908720864360111_);}
	.st26{opacity:0.3;fill:url(#SVGID_00000127014960749094807030000018065745367885514638_);}
	.st27{opacity:0.68;fill:#FFFFFF;}
	.st28{fill:url(#SVGID_00000131337940838939073290000002077485713558787716_);}
	.st29{fill:url(#SVGID_00000119820840395043425410000007041236988301886885_);}
	.st30{fill:url(#SVGID_00000044172517896319206050000014843509676025432217_);}
	.st31{fill:url(#SVGID_00000012433190955805872820000000744595836447032744_);}
	.st32{fill:url(#SVGID_00000176007222716795947590000006893562523288334507_);}
	.st33{fill:url(#SVGID_00000109714401835467173670000009288355090482331528_);}
	.st34{fill:url(#SVGID_00000084505529368932794170000012504957457643754375_);}
	.st35{fill:url(#SVGID_00000057841882413360819630000000685767071575226505_);}
	.st36{fill:url(#SVGID_00000114059927572567816600000017662960040277267116_);}
</style>
<g id="Background">
</g>
<g id="Illustration">
	<g>
		<g>
			<g>
				<g>
					<path class="st0" d="M3362.04,3037.8l-2984.26-25.44v75.27c0,20.43,13.02,37.8,30.64,40.89l843.86,148.21
						c10.01,1.76,20.17,2.23,30.28,1.39l2047.05-168.98c18.28-1.51,32.43-18.93,32.43-39.92V3037.8z"/>
					<g>
						<path class="st0" d="M2279.07,2917.18L408.64,3054.87c-33.47,2.46-60.68-23.72-60.68-58.48V1603.54
							c0-34.77,27.21-62.95,60.68-62.95h1870.42c27.57,0,49.87,25.48,49.87,56.91v1259.11
							C2328.93,2888.03,2306.64,2915.15,2279.07,2917.18z"/>
						<linearGradient id="SVGID_1_" gradientUnits="userSpaceOnUse" x1="377.7812" y1="2297.8113" x2="2358.7583" y2="2297.8113">
							<stop  offset="0" style="stop-color:#444B8C"/>
							<stop  offset="0.9964" style="stop-color:#26264F"/>
						</linearGradient>
						<path class="st1" d="M2308.89,2917.18L438.46,3054.87c-33.47,2.46-60.68-23.72-60.68-58.48V1603.54
							c0-34.77,27.21-62.95,60.68-62.95h1870.42c27.57,0,49.87,25.48,49.87,56.91v1259.11
							C2358.76,2888.03,2336.46,2915.15,2308.89,2917.18z"/>
						
							<linearGradient id="SVGID_00000113344445609564582720000008153300032877253787_" gradientUnits="userSpaceOnUse" x1="459.1442" y1="2284.7932" x2="2291.7668" y2="2284.7932">
							<stop  offset="0" style="stop-color:#AA80F9"/>
							<stop  offset="0.9964" style="stop-color:#6165D7"/>
						</linearGradient>
						<path style="fill:url(#SVGID_00000113344445609564582720000008153300032877253787_);" d="M2250.62,2828.41l-1742.11,119.6
							c-27.24,1.87-49.37-19.62-49.37-48V1680.57c0-28.38,22.13-51.49,49.37-51.6l1742.11-7.51c22.75-0.1,41.15,20.78,41.15,46.63
							v1110.69C2291.77,2804.63,2273.37,2826.85,2250.62,2828.41z"/>
						<path class="st3" d="M1439.74,1578.69c0,12.94-9.63,23.46-21.52,23.5c-11.9,0.04-21.56-10.45-21.56-23.42
							c0-12.97,9.66-23.49,21.56-23.5C1430.11,1555.26,1439.74,1565.74,1439.74,1578.69z"/>
						<path class="st4" d="M438.46,3054.87l1860.96-136.99l9.47-0.7c12.65-0.93,24.16-7.19,32.94-16.67
							c-133.92-7.33-217.09-54.85-270.75-103.96c-107.75-98.61-89.06-195.86-205.26-260.7c-144.93-80.87-258.89,21.6-368.87-79.5
							c-66.67-61.3-33.94-107.01-115.98-198.61c-90.87-101.46-150.03-67.35-241.35-158.66
							c-115.47-115.46-57.72-205.28-157.18-288.18c-120.66-100.56-250.79-7.49-365.66-103.93c-49.54-41.6-76.73-102.07-90.92-166.38
							h-87.39c-33.47,0-60.68,28.18-60.68,62.95v1392.85C377.78,3031.15,404.99,3057.33,438.46,3054.87z"/>
					</g>
					
						<linearGradient id="SVGID_00000168832388279533914170000013543717884747092106_" gradientUnits="userSpaceOnUse" x1="377.7812" y1="3059.5027" x2="3362.0425" y2="3059.5027">
						<stop  offset="0" style="stop-color:#444B8C"/>
						<stop  offset="0.9964" style="stop-color:#26264F"/>
					</linearGradient>
					<path style="fill:url(#SVGID_00000168832388279533914170000013543717884747092106_);" d="M2383.44,2909.55L377.78,3054.48
						l874.5,153.59c10.01,1.76,20.17,2.23,30.28,1.39l2079.48-171.66l-946.7-127.27
						C2404.76,2909.11,2394.08,2908.78,2383.44,2909.55z"/>
					<polygon class="st0" points="670.44,3055.72 2340.21,2933.27 2856.99,3002.18 1201.6,3133.08 					"/>
				</g>
			</g>
			<g>
				<g class="st6">
					<path class="st3" d="M1107.55,2153.03c35.59-69.16,102.06-119.47,179.72-130.8l5.41-335.19
						c-221.94,11.07-414.7,154.85-501.54,357.09L1107.55,2153.03z"/>
					<path class="st3" d="M1540.39,2290.55c-18.69,111.47-112.25,200.2-225.98,205.76c-33.72,1.65-65.85-4.18-94.95-16.07
						l-174.28,296.83c80.72,39.62,172.51,59.01,269.23,52.75c285.4-18.48,514.21-254.49,539.86-538.35L1540.39,2290.55z"/>
					<path class="st3" d="M991.11,2746.44l175.15-297.31c-52.64-41.66-86.36-107.18-86.36-182.21c0-18.13,1.99-35.85,5.72-52.97
						l-317.06-108.11c-16.81,55.17-25.88,113.55-25.88,173.77C742.69,2479,841.62,2649.74,991.11,2746.44z"/>
				</g>
				<g>
					
						<linearGradient id="SVGID_00000158006287496736840020000008198769246525996168_" gradientUnits="userSpaceOnUse" x1="1648.3546" y1="1907.8438" x2="2472.1074" y2="1096.573">
						<stop  offset="3.597120e-03" style="stop-color:#E38DDD"/>
						<stop  offset="1" style="stop-color:#9571F6"/>
					</linearGradient>
					<path style="fill:url(#SVGID_00000158006287496736840020000008198769246525996168_);" d="M1349.09,2021.62
						c103.8,13.29,184.17,98.16,193.75,206.05l517.3,3.08c0-0.24,0-0.47,0-0.71c0-408.49-304.81-741.94-702.1-764.74
						L1349.09,2021.62z"/>
				</g>
			</g>
		</g>
		<g>
			<path class="st8" d="M350.63,537.8v841.87c0,27.95,23.1,50.61,51.59,50.61h1732.48c27.42,0,49.64-22.21,49.64-49.62V555.25
				L350.63,537.8z"/>
			<path class="st9" d="M2134.69,449.94L402.22,431.48c-28.49-0.3-51.59,22.11-51.59,50.06v86.27l1833.71,16.86v-84.58
				C2184.34,472.68,2162.12,450.23,2134.69,449.94z"/>
			<g>
				<g>
					<g>
						<path class="st9" d="M773.7,987.74l95.48-327.44c144.48,47.04,248.93,180.98,249.71,338.39L773.7,987.74z"/>
					</g>
					<g>
						<path class="st3" d="M1029.65,1018.96c-5.36,74.87-41.87,141.16-96.88,186.4l-149.85-194.48L1029.65,1018.96z"/>
						<path class="st3" d="M752.35,976.42c-57.8-54.78-127.53-121.01-182.96-173.89c49.16-45.69,115.62-73.43,188.67-72.89
							c22.15,0.17,43.67,2.93,64.28,7.98L752.35,976.42z"/>
						<path class="st3" d="M740.3,996.91l-209.65,150.64c-29.32-42.99-46.44-94.7-46.44-150.27c0-68.53,26.03-130.94,68.88-178.22
							c15.35,14.64,32.42,30.89,51.12,48.68C660.85,921.61,717.78,975.57,740.3,996.91z"/>
						<path class="st3" d="M746.37,1021.15l-4.05,245.82c-79.81-4.61-150.58-42.94-197.74-100.76L746.37,1021.15z"/>
						<path class="st3" d="M769.61,1031.65l144.64,187.66c-42.24,29.08-93.3,46.63-148.52,48.03L769.61,1031.65z"/>
					</g>
				</g>
				<polygon class="st3" points="2055.58,822.42 1167.77,816.56 1167.77,733.3 2055.58,739.95 				"/>
				<polygon class="st3" points="2055.58,971.66 1167.77,967.24 1167.77,883.97 2055.58,889.19 				"/>
				<polygon class="st3" points="2055.58,1120.89 1167.77,1117.91 1167.77,1034.64 2055.58,1038.42 				"/>
				<polygon class="st3" points="2055.58,1270.12 1167.77,1268.58 1167.77,1185.31 2055.58,1187.65 				"/>
			</g>
			<path class="st3" d="M469.08,499.6c0,12.41-10.25,22.37-22.9,22.25c-12.65-0.12-22.91-10.29-22.91-22.7
				c0-12.42,10.26-22.38,22.91-22.25C458.83,477.03,469.08,487.19,469.08,499.6z"/>
		</g>
		<g>
			<g>
				
					<rect x="2708.85" y="1597.94" transform="matrix(0.5473 -0.8369 0.8369 0.5473 -245.8253 3126.9934)" class="st3" width="117.96" height="385.62"/>
				
					<linearGradient id="SVGID_00000067210184602499209460000008956984419640019083_" gradientUnits="userSpaceOnUse" x1="2509.5352" y1="1675.8418" x2="2753.4641" y2="1675.8418">
					<stop  offset="0" style="stop-color:#40447E"/>
					<stop  offset="0.9964" style="stop-color:#3C3B6B"/>
				</linearGradient>
				<circle style="fill:url(#SVGID_00000067210184602499209460000008956984419640019083_);" cx="2631.5" cy="1675.84" r="121.96"/>
				
					<linearGradient id="SVGID_00000096047794710514427290000014654782329926301102_" gradientUnits="userSpaceOnUse" x1="2753.1494" y1="1862.0768" x2="2953.4351" y2="1862.0768">
					<stop  offset="0" style="stop-color:#40447E"/>
					<stop  offset="0.9964" style="stop-color:#3C3B6B"/>
				</linearGradient>
				<circle style="fill:url(#SVGID_00000096047794710514427290000014654782329926301102_);" cx="2853.29" cy="1862.08" r="100.14"/>
			</g>
			<g>
				
					<linearGradient id="SVGID_00000011750162748453757260000012598080171922476428_" gradientUnits="userSpaceOnUse" x1="2694.7493" y1="1165.4457" x2="3002.0173" y2="1165.4457">
					<stop  offset="0" style="stop-color:#FFC444"/>
					<stop  offset="0.9964" style="stop-color:#F36F56"/>
				</linearGradient>
				
					<ellipse style="fill:url(#SVGID_00000011750162748453757260000012598080171922476428_);" cx="2848.38" cy="1165.45" rx="153.63" ry="215.9"/>
				
					<linearGradient id="SVGID_00000130637936127052311260000015609118126506652328_" gradientUnits="userSpaceOnUse" x1="1552.8186" y1="1053.9419" x2="2915.6763" y2="1053.9419">
					<stop  offset="0" style="stop-color:#FCB148"/>
					<stop  offset="0.0521" style="stop-color:#FDBA46"/>
					<stop  offset="0.1424" style="stop-color:#FFC244"/>
					<stop  offset="0.3183" style="stop-color:#FFC444"/>
					<stop  offset="0.4849" style="stop-color:#FDB946"/>
					<stop  offset="0.7754" style="stop-color:#F99C4D"/>
					<stop  offset="0.8658" style="stop-color:#F8924F"/>
					<stop  offset="1" style="stop-color:#F8924F"/>
				</linearGradient>
				<path style="fill:url(#SVGID_00000130637936127052311260000015609118126506652328_);" d="M2378.83,642.28h-289.16
					c-296.49,0-536.85,240.36-536.85,536.85v0c0,158.21,128.26,286.47,286.47,286.47h789.92c158.21,0,286.47-128.26,286.47-286.47v0
					C2915.68,882.64,2675.32,642.28,2378.83,642.28z"/>
				
					<linearGradient id="SVGID_00000155862744891201383400000006914162726207322553_" gradientUnits="userSpaceOnUse" x1="1792.1567" y1="1785.5582" x2="2676.3386" y2="1785.5582">
					<stop  offset="0" style="stop-color:#FCB148"/>
					<stop  offset="0.0521" style="stop-color:#FDBA46"/>
					<stop  offset="0.1424" style="stop-color:#FFC244"/>
					<stop  offset="0.3183" style="stop-color:#FFC444"/>
					<stop  offset="0.4849" style="stop-color:#FDB946"/>
					<stop  offset="0.7754" style="stop-color:#F99C4D"/>
					<stop  offset="0.8658" style="stop-color:#F8924F"/>
					<stop  offset="1" style="stop-color:#F8924F"/>
				</linearGradient>
				<path style="fill:url(#SVGID_00000155862744891201383400000006914162726207322553_);" d="M2328.05,2052.63h-187.6
					c-192.36,0-348.29-155.94-348.29-348.29v0c0-102.64,83.21-185.85,185.85-185.85h512.48c102.64,0,185.85,83.21,185.85,185.85v0
					C2676.34,1896.69,2520.4,2052.63,2328.05,2052.63z"/>
				<g>
					
						<linearGradient id="SVGID_00000021797642538675536980000010435742394113232284_" gradientUnits="userSpaceOnUse" x1="1956.0422" y1="1170.4037" x2="2761.1438" y2="1170.4037">
						<stop  offset="0" style="stop-color:#444B8C"/>
						<stop  offset="0.9964" style="stop-color:#26264F"/>
					</linearGradient>
					<path style="fill:url(#SVGID_00000021797642538675536980000010435742394113232284_);" d="M2641.29,1349.81h-549.65
						c-74.49,0-135.6-57.1-135.6-127.53v-108c0-70.43,61.11-125.58,135.6-123.2l549.65,17.53c66.52,2.12,119.85,56.88,119.85,122.33
						v100.36C2761.14,1296.75,2707.82,1349.81,2641.29,1349.81z"/>
					<g>
						<g>
							<path class="st3" d="M2267.75,1162.55c0,47.04-40.04,84.66-89.83,84.03c-50.24-0.63-91.31-39.91-91.31-87.71
								c0-47.81,41.06-85.41,91.31-84C2227.71,1076.26,2267.75,1115.51,2267.75,1162.55z"/>
							<path class="st3" d="M2639.2,1170.1c0,45.46-37.39,81.84-83.88,81.25c-46.89-0.59-85.21-38.51-85.21-84.68
								c0-46.18,38.32-82.53,85.21-81.22C2601.81,1086.74,2639.2,1124.64,2639.2,1170.1z"/>
						</g>
					</g>
				</g>
				<path class="st16" d="M2433.71,1390.3c-81.75-96.05-45.42-172.86-152.29-303.02c-147.05-179.09-318.59-158.83-357.88-280.29
					c-10.89-33.66-12.14-79.86,17.07-143.72c-223.97,64.6-387.79,271.09-387.79,515.86v0c0,158.21,128.25,286.47,286.47,286.47
					h688.41C2486.46,1443.12,2456.33,1416.87,2433.71,1390.3z"/>
				
					<linearGradient id="SVGID_00000005264975737985151910000002468651900325275555_" gradientUnits="userSpaceOnUse" x1="1476.4408" y1="1163.9435" x2="1783.7084" y2="1163.9435">
					<stop  offset="0" style="stop-color:#FFC444"/>
					<stop  offset="0.9964" style="stop-color:#F36F56"/>
				</linearGradient>
				
					<ellipse style="fill:url(#SVGID_00000005264975737985151910000002468651900325275555_);" cx="1630.07" cy="1163.94" rx="153.63" ry="215.9"/>
				
					<linearGradient id="SVGID_00000088836142869899702810000002053894470526442901_" gradientUnits="userSpaceOnUse" x1="1441.3584" y1="1163.9437" x2="1575.722" y2="1163.9437">
					<stop  offset="0" style="stop-color:#FFC444"/>
					<stop  offset="0.9964" style="stop-color:#F36F56"/>
				</linearGradient>
				
					<ellipse style="fill:url(#SVGID_00000088836142869899702810000002053894470526442901_);" cx="1508.54" cy="1163.94" rx="67.18" ry="94.41"/>
				
					<linearGradient id="SVGID_00000018949539246990101350000007818094806260864413_" gradientUnits="userSpaceOnUse" x1="1792.1567" y1="1785.5582" x2="2381.0623" y2="1785.5582">
					<stop  offset="0" style="stop-color:#FCB148"/>
					<stop  offset="0.0521" style="stop-color:#FDBA46"/>
					<stop  offset="0.1424" style="stop-color:#FFC244"/>
					<stop  offset="0.3183" style="stop-color:#FFC444"/>
					<stop  offset="0.4849" style="stop-color:#FDB946"/>
					<stop  offset="0.7754" style="stop-color:#F99C4D"/>
					<stop  offset="0.8658" style="stop-color:#F8924F"/>
					<stop  offset="1" style="stop-color:#F8924F"/>
				</linearGradient>
				<path style="opacity:0.4;fill:url(#SVGID_00000018949539246990101350000007818094806260864413_);" d="M2374.25,1860.89
					c-25.74-120.87-310.43-117.96-318.17-196.96c-5.97-60.91,157.49-121.21,178.03-128.78c17.57-6.48,35-11.97,52.26-16.66h-308.36
					c-102.64,0-185.85,83.21-185.85,185.85v0c0,192.36,155.93,348.29,348.29,348.29h187.6c18.02,0,35.73-1.37,53.02-4.01
					c-16.33-20.24-26.97-42.37-29.54-66.52C2345.81,1928.55,2384.22,1907.73,2374.25,1860.89z"/>
				
					<linearGradient id="SVGID_00000156566006991367683060000011725692973408585867_" gradientUnits="userSpaceOnUse" x1="2106.2939" y1="2554.5569" x2="2191.4893" y2="1895.41">
					<stop  offset="0" style="stop-color:#FCB148"/>
					<stop  offset="0.0521" style="stop-color:#FDBA46"/>
					<stop  offset="0.1424" style="stop-color:#FFC244"/>
					<stop  offset="0.3183" style="stop-color:#FFC444"/>
					<stop  offset="0.3975" style="stop-color:#FEC045"/>
					<stop  offset="0.7095" style="stop-color:#FAA34B"/>
					<stop  offset="0.8658" style="stop-color:#F8924F"/>
					<stop  offset="1" style="stop-color:#F8924F"/>
				</linearGradient>
				
					<ellipse style="fill:url(#SVGID_00000156566006991367683060000011725692973408585867_);" cx="2238.87" cy="1528.83" rx="296.28" ry="35.87"/>
			</g>
			<g>
				
					<rect x="1928.63" y="1597.94" transform="matrix(0.5473 -0.8369 0.8369 0.5473 -598.9912 2474.0266)" class="st3" width="117.96" height="385.62"/>
				
					<linearGradient id="SVGID_00000146469971451650345810000009848607616810541230_" gradientUnits="userSpaceOnUse" x1="1729.3184" y1="1675.8418" x2="1973.2474" y2="1675.8418">
					<stop  offset="0" style="stop-color:#40447E"/>
					<stop  offset="0.9964" style="stop-color:#3C3B6B"/>
				</linearGradient>
				<circle style="fill:url(#SVGID_00000146469971451650345810000009848607616810541230_);" cx="1851.28" cy="1675.84" r="121.96"/>
				<polygon class="st3" points="2129.87,1828.76 2412.37,1828.76 2401.16,1945.65 2124.27,1936.37 				"/>
				
					<linearGradient id="SVGID_00000021838899811255978690000015330742901153494700_" gradientUnits="userSpaceOnUse" x1="1972.9333" y1="1862.0768" x2="2173.2188" y2="1862.0768">
					<stop  offset="0" style="stop-color:#40447E"/>
					<stop  offset="0.9964" style="stop-color:#3C3B6B"/>
				</linearGradient>
				<circle style="fill:url(#SVGID_00000021838899811255978690000015330742901153494700_);" cx="2073.08" cy="1862.08" r="100.14"/>
				
					<linearGradient id="SVGID_00000139251360678076861860000018229026030072960404_" gradientUnits="userSpaceOnUse" x1="2320.4431" y1="1866.6006" x2="2472.842" y2="1866.6006">
					<stop  offset="0" style="stop-color:#40447E"/>
					<stop  offset="0.9964" style="stop-color:#3C3B6B"/>
				</linearGradient>
				<path style="fill:url(#SVGID_00000139251360678076861860000018229026030072960404_);" d="M2437,1825.52
					c-17.12-9.58-41.29-16.33-75.31-15.09c-16.16,0.59-29.51,12.86-31.4,28.92l-9.85,83.58h145.73l4.76-19.97
					C2478.19,1872.47,2464.34,1840.82,2437,1825.52z"/>
			</g>
			<g>
				
					<linearGradient id="SVGID_00000070097614831874990340000016173805058342353808_" gradientUnits="userSpaceOnUse" x1="2131.0564" y1="1952.8163" x2="2704.1333" y2="1952.8163">
					<stop  offset="0" style="stop-color:#AA80F9"/>
					<stop  offset="0.9964" style="stop-color:#6165D7"/>
				</linearGradient>
				<path style="fill:url(#SVGID_00000070097614831874990340000016173805058342353808_);" d="M2694.32,1924.91l-525.71-9.08
					c-7.23-0.12-14.07,3.31-18.29,9.18l-16.03,22.32c-7.98,11.11-0.3,26.62,13.38,27l556.47,15.49L2694.32,1924.91z"/>
				
					<linearGradient id="SVGID_00000076565897659175032690000006671332172989133757_" gradientUnits="userSpaceOnUse" x1="2467.1846" y1="1820.2258" x2="3276.1582" y2="1820.2258">
					<stop  offset="0" style="stop-color:#AA80F9"/>
					<stop  offset="0.9964" style="stop-color:#6165D7"/>
				</linearGradient>
				<path style="fill:url(#SVGID_00000076565897659175032690000006671332172989133757_);" d="M3258.62,1669.06l-542.07-25.24
					c-16.04-0.75-31.28,7.01-40.12,20.42l-209.24,317.47l573.27,14.95c15.73,0.41,30.62-7.14,39.57-20.09l192.84-278.72
					C3281.08,1685.99,3273.03,1669.73,3258.62,1669.06z"/>
				
					<linearGradient id="SVGID_00000004509239225067487320000012763546437083508913_" gradientUnits="userSpaceOnUse" x1="2467.1846" y1="1820.2262" x2="3092.7227" y2="1820.2262">
					<stop  offset="0" style="stop-color:#AA80F9"/>
					<stop  offset="0.9964" style="stop-color:#6165D7"/>
				</linearGradient>
				<path style="opacity:0.3;fill:url(#SVGID_00000004509239225067487320000012763546437083508913_);" d="M2676.42,1664.24
					c8.84-13.41,24.08-21.17,40.12-20.42l11.88,0.55c0.62,17.59,4.92,33.93,14.77,47.55c30.72,42.5,87.82,21.3,126.35,66.67
					c42.32,49.84-3.31,102.83,34.41,149.11c39.7,48.71,111.27,15.91,188.77,50.51l-12.7,18.35c-8.96,12.95-23.84,20.5-39.57,20.09
					l-573.27-14.95L2676.42,1664.24z"/>
			</g>
		</g>
		<g>
			<g>
				<path class="st27" d="M1987.61,2342.49v702.29c0,23.32,17.43,41.3,38.88,40.17l1234.66-64.83c18.5-0.97,33.46-19.25,33.46-40.84
					v-650.16L1987.61,2342.49z"/>
				
					<linearGradient id="SVGID_00000171704632227201502440000010836176017186297010_" gradientUnits="userSpaceOnUse" x1="2748.6841" y1="2141.668" x2="2165.5681" y2="3094.9363">
					<stop  offset="0" style="stop-color:#FF9085"/>
					<stop  offset="1" style="stop-color:#FB6FBB"/>
				</linearGradient>
				<path style="fill:url(#SVGID_00000171704632227201502440000010836176017186297010_);" d="M3261.15,2246.75l-1234.66,6.38
					c-21.45,0.11-38.88,19.1-38.88,42.42v71.96l1307-15.23v-66.62C3294.61,2264.07,3279.64,2246.65,3261.15,2246.75z"/>
				<path class="st3" d="M2076.68,2308.89c0,10.31-7.68,18.75-17.16,18.84c-9.49,0.09-17.2-8.22-17.2-18.55
					c0-10.33,7.7-18.77,17.2-18.84C2069,2290.28,2076.68,2298.58,2076.68,2308.89z"/>
			</g>
			<g>
				<polygon class="st3" points="2254.18,2982.11 2157.03,2986.7 2157.03,2464.68 2254.18,2462.99 				"/>
				
					<linearGradient id="SVGID_00000080186964299834286820000012449220057788878495_" gradientUnits="userSpaceOnUse" x1="2262.301" y1="2683.5376" x2="2127.4973" y2="3104.2192">
					<stop  offset="0" style="stop-color:#FF9085"/>
					<stop  offset="1" style="stop-color:#FB6FBB"/>
				</linearGradient>
				<polygon style="fill:url(#SVGID_00000080186964299834286820000012449220057788878495_);" points="2254.18,2982.11 
					2157.03,2986.7 2157.03,2738.85 2254.18,2735.64 				"/>
				<polygon class="st3" points="2387.56,2975.8 2291.9,2980.32 2291.9,2462.34 2387.56,2460.68 				"/>
				
					<linearGradient id="SVGID_00000096040853140677937590000018354806127462203575_" gradientUnits="userSpaceOnUse" x1="2371.3811" y1="2817.8064" x2="2296.1609" y2="3052.5452">
					<stop  offset="0" style="stop-color:#FF9085"/>
					<stop  offset="1" style="stop-color:#FB6FBB"/>
				</linearGradient>
				<polygon style="fill:url(#SVGID_00000096040853140677937590000018354806127462203575_);" points="2387.56,2975.8 
					2291.9,2980.32 2291.9,2857.36 2387.56,2853.52 				"/>
				<polygon class="st3" points="2518.91,2969.59 2424.7,2974.05 2424.7,2460.03 2518.91,2458.4 				"/>
				
					<linearGradient id="SVGID_00000095305976505981872200000012517488264859759009_" gradientUnits="userSpaceOnUse" x1="2491.5842" y1="2878.0635" x2="2444.6028" y2="3024.6785">
					<stop  offset="0" style="stop-color:#FF9085"/>
					<stop  offset="1" style="stop-color:#FB6FBB"/>
				</linearGradient>
				<polygon style="fill:url(#SVGID_00000095305976505981872200000012517488264859759009_);" points="2518.91,2969.59 
					2424.7,2974.05 2424.7,2909.99 2518.91,2905.88 				"/>
				<polygon class="st3" points="2648.26,2963.48 2555.49,2967.86 2555.49,2457.77 2648.26,2456.16 				"/>
				
					<linearGradient id="SVGID_00000077293295302585797440000012908682503843519421_" gradientUnits="userSpaceOnUse" x1="2688.5735" y1="2495.3079" x2="2482.4226" y2="3138.6418">
					<stop  offset="0" style="stop-color:#FF9085"/>
					<stop  offset="1" style="stop-color:#FB6FBB"/>
				</linearGradient>
				<polygon style="fill:url(#SVGID_00000077293295302585797440000012908682503843519421_);" points="2648.26,2963.48 
					2555.49,2967.86 2555.49,2568.26 2648.26,2566.05 				"/>
				<polygon class="st3" points="2775.67,2957.46 2684.29,2961.78 2684.29,2455.53 2775.67,2453.95 				"/>
				
					<linearGradient id="SVGID_00000072993350703799256670000008458787572157440926_" gradientUnits="userSpaceOnUse" x1="2806.978" y1="2543.5774" x2="2623.9114" y2="3114.8738">
					<stop  offset="0" style="stop-color:#FF9085"/>
					<stop  offset="1" style="stop-color:#FB6FBB"/>
				</linearGradient>
				<polygon style="fill:url(#SVGID_00000072993350703799256670000008458787572157440926_);" points="2775.67,2957.46 
					2684.29,2961.78 2684.29,2610.26 2775.67,2607.84 				"/>
				<polygon class="st3" points="2901.18,2951.52 2811.16,2955.78 2811.16,2453.33 2901.18,2451.77 				"/>
				
					<linearGradient id="SVGID_00000065770115287797704500000000103565671895452350_" gradientUnits="userSpaceOnUse" x1="2948.6311" y1="2450.4253" x2="2728.7952" y2="3136.4661">
					<stop  offset="0" style="stop-color:#FF9085"/>
					<stop  offset="1" style="stop-color:#FB6FBB"/>
				</linearGradient>
				<polygon style="fill:url(#SVGID_00000065770115287797704500000000103565671895452350_);" points="2901.18,2951.52 
					2811.16,2955.78 2811.16,2526.39 2901.18,2524.44 				"/>
				<polygon class="st3" points="3024.83,2945.68 2936.15,2949.87 2936.15,2451.17 3024.83,2449.63 				"/>
				
					<linearGradient id="SVGID_00000114060593529710658360000007814753794999600318_" gradientUnits="userSpaceOnUse" x1="3048.2683" y1="2583.1006" x2="2887.1343" y2="3085.9512">
					<stop  offset="0" style="stop-color:#FF9085"/>
					<stop  offset="1" style="stop-color:#FB6FBB"/>
				</linearGradient>
				<polygon style="fill:url(#SVGID_00000114060593529710658360000007814753794999600318_);" points="3024.83,2945.68 
					2936.15,2949.87 2936.15,2643.55 3024.83,2640.98 				"/>
				<polygon class="st3" points="3146.67,2939.92 3059.28,2944.05 3059.28,2449.03 3146.67,2447.52 				"/>
				
					<linearGradient id="SVGID_00000013898567600218338250000007548386070735500730_" gradientUnits="userSpaceOnUse" x1="3143.7939" y1="2728.6753" x2="3046.7783" y2="3031.4314">
					<stop  offset="0" style="stop-color:#FF9085"/>
					<stop  offset="1" style="stop-color:#FB6FBB"/>
				</linearGradient>
				<polygon style="fill:url(#SVGID_00000013898567600218338250000007548386070735500730_);" points="3146.67,2939.92 
					3059.28,2944.05 3059.28,2772.19 3146.67,2768.97 				"/>
			</g>
		</g>
	</g>
</g>
</svg>
